# xmcd
#
# Track frame offsets:
# 150
# 27028
# 51871
# 84747
# 114151
# 116026
# 135455
# 186490
#
# Disc length: 3200 seconds
#
#
# Revision: 0
# Processed by: cddbd v1.5.1PL2 Copyright (c) Steve Scherf et al.
# Submitted via: FreeRIP 2.941 
#
DISCID=660c7e08
DTITLE=Breakaway - Live at The Viking
DYEAR=2006
DGENRE=Blues
TTITLE0=Everybody's Talkin
TTITLE1=Crescent Street Blues
TTITLE2=Down the Line
TTITLE3=Get Out and Love Somebody
TTITLE4=Band Intro's
TTITLE5=Look Around
TTITLE6=The Bottle
TTITLE7=Gambling Man on a Killin Floor
EXTD=As heard on\nBluesfestRadio.com
EXTT0=
EXTT1=
EXTT2=
EXTT3=
EXTT4=
EXTT5=
EXTT6=
EXTT7=
PLAYORDER=
